<svg width="48" height="49" viewBox="0 0 48 49" fill="none" xmlns="http://www.w3.org/2000/svg">
<path fill-rule="evenodd" clip-rule="evenodd" d="M32 7H16C10.4772 7 6 11.4772 6 17V33C6 38.5228 10.4772 43 16 43H32C37.5228 43 42 38.5228 42 33V17C42 11.4772 37.5228 7 32 7ZM38.5 33C38.489 36.5852 35.5852 39.489 32 39.5H16C12.4147 39.489 9.51098 36.5852 9.5 33V17C9.51098 13.4147 12.4147 10.511 16 10.5H32C35.5852 10.511 38.489 13.4147 38.5 17V33ZM33.5 17.5C34.6046 17.5 35.5 16.6046 35.5 15.5C35.5 14.3954 34.6046 13.5 33.5 13.5C32.3954 13.5 31.5 14.3954 31.5 15.5C31.5 16.6046 32.3954 17.5 33.5 17.5ZM24 16C19.0294 16 15 20.0294 15 25C15 29.9706 19.0294 34 24 34C28.9706 34 33 29.9706 33 25C33.0054 22.6114 32.0588 20.3191 30.3698 18.6302C28.6808 16.9412 26.3886 15.9947 24 16ZM18.5 25C18.5 28.0376 20.9624 30.5 24 30.5C27.0376 30.5 29.5 28.0376 29.5 25C29.5 21.9624 27.0376 19.5 24 19.5C20.9624 19.5 18.5 21.9624 18.5 25Z" fill="#F6F5F5"/>
</svg>
