<svg width="48" height="49" viewBox="0 0 48 49" fill="none" xmlns="http://www.w3.org/2000/svg">
<path d="M41.9473 13.4348C41.0185 14.6738 39.8957 15.7547 38.6223 16.6355C38.6223 16.9592 38.6223 17.2828 38.6223 17.6245C38.6325 23.5022 36.2847 29.1382 32.1053 33.269C27.9257 37.3998 22.2641 39.6798 16.3898 39.5978C12.9937 39.6092 9.64105 38.8338 6.59455 37.3322C6.43027 37.2604 6.32433 37.098 6.32495 36.9186V36.7208C6.32495 36.4626 6.53417 36.2534 6.79225 36.2534C10.1306 36.1432 13.3498 34.9858 15.9944 32.9448C12.9728 32.8838 10.2541 31.0938 9.00291 28.3414C8.93973 28.1912 8.95939 28.0186 9.05485 27.8864C9.15029 27.7542 9.30771 27.6814 9.47021 27.6942C10.3886 27.7864 11.3161 27.701 12.2021 27.4424C8.86649 26.75 6.36013 23.9808 6.00143 20.5914C5.98869 20.4288 6.06155 20.2714 6.19371 20.1758C6.32585 20.0804 6.49819 20.0606 6.64847 20.124C7.54359 20.519 8.50989 20.727 9.48819 20.7352C6.56539 18.8169 5.30293 15.1681 6.41481 11.8524C6.52959 11.5303 6.80533 11.2922 7.14071 11.2259C7.47607 11.1595 7.82163 11.2746 8.05035 11.5288C11.9945 15.7265 17.4138 18.2279 23.1655 18.5056C23.0183 17.9177 22.9459 17.3135 22.9499 16.7074C23.0037 13.5294 24.9701 10.6984 27.9285 9.53974C30.8867 8.38108 34.2515 9.12406 36.4477 11.4209C37.9445 11.1357 39.3917 10.6329 40.7431 9.92842C40.8421 9.86662 40.9677 9.86662 41.0667 9.92842C41.1285 10.0275 41.1285 10.153 41.0667 10.2521C40.4121 11.751 39.3063 13.0082 37.9035 13.8484C39.1319 13.7059 40.3387 13.4161 41.4981 12.9853C41.5957 12.9188 41.7239 12.9188 41.8215 12.9853C41.9033 13.0227 41.9645 13.0942 41.9887 13.1808C42.0129 13.2675 41.9977 13.3604 41.9473 13.4348Z" fill="#F6F5F5"/>
</svg>
