<svg width="56" height="24" viewBox="0 0 56 24" fill="none" xmlns="http://www.w3.org/2000/svg">
<path d="M7.68912 0H15.0734L18.368 10.3288H12.3591L11.3813 6.45634L10.3568 10.3288H4.37996L7.68912 0Z" fill="#8F42DB"/>
<path d="M2.87583 15.0237L0 24H6.74068L8.16334 19.3014H14.5653L16.0218 24H22.7286L19.8655 15.0237H2.87583Z" fill="#8F42DB"/>
<path d="M24.7269 15.0237V24H33.9741C36.413 24 38.5357 23.5042 40.3422 22.5127C42.1713 21.5211 43.5827 20.1239 44.5763 18.3211C45.141 17.3194 45.5487 16.2202 45.7996 15.0237H38.83C38.8043 15.0867 38.7777 15.1492 38.7502 15.2113C38.3211 16.1577 37.7001 16.9014 36.8872 17.4423C36.0968 17.9831 35.1258 18.2535 33.9741 18.2535H31.3321V15.0237H24.7269Z" fill="#8F42DB"/>
<path d="M39.2527 10.3288C39.1458 9.74834 38.9783 9.21243 38.7502 8.72113C38.3211 7.77465 37.7001 7.04225 36.8872 6.52394C36.0742 6.00563 35.1032 5.74648 33.9741 5.74648H31.3321V10.3288H24.7269V0H33.9741C36.6388 0 38.8631 0.540845 40.6471 1.62253C42.4536 2.68169 43.8085 4.12394 44.7118 5.94929C45.4034 7.29598 45.8367 8.75583 46.0117 10.3288H39.2527Z" fill="#8F42DB"/>
<path d="M48.9737 15.0237V24H55.5789V15.0237H48.9737Z" fill="#8F42DB"/>
<path d="M55.5789 10.3288H48.9737V0H55.5789V10.3288Z" fill="#8F42DB"/>
</svg>
